<svg id="Layer_1" height="512" viewBox="0 0 128 128" width="512" xmlns="http://www.w3.org/2000/svg" data-name="Layer 1"><path d="m121.537 86.625-29.117 12.954a12 12 0 0 1 -15.038-4.579l-52.73-83.9a3 3 0 0 1 .948-4.14 3 3 0 0 1 4.135.944l50.565 80.462a6 6 0 0 0 7.965 2.068l28.089-15.405z" fill="#a5a5a4"/><path d="m121.54 86.62-10.04 4.47-4.81-10.76 9.66-5.3z" fill="#898988"/><path d="m6.463 86.625 29.117 12.954a12 12 0 0 0 15.038-4.579l52.73-83.9a3 3 0 0 0 -.948-4.14 3 3 0 0 0 -4.135.944l-50.565 80.462a6 6 0 0 1 -7.965 2.068l-28.087-15.405z" fill="#898988"/><path d="m21.31 80.33-4.81 10.76-10.04-4.47 5.19-11.59z" fill="#a5a5a4"/><path d="m64 105.56c-6.9 0-12.5 2.22-12.5 4.97v6c0 2.74 5.6 4.97 12.5 4.97s12.5-2.23 12.5-4.97v-6c0-2.75-5.6-4.97-12.5-4.97z" fill="#a5a5a4"/><path d="m76.5 110.53v6c0 2.74-5.6 4.97-12.5 4.97s-12.5-2.23-12.5-4.97v-6c0 1.12.94 2.16 2.53 3a22.768 22.768 0 0 0 9.97 1.97 22.768 22.768 0 0 0 9.97-1.97c1.59-.84 2.53-1.88 2.53-3z" fill="#898988"/><g fill="#26180d"><path d="m123.137 85.9-5.19-11.59a1.75 1.75 0 0 0 -2.438-.819l-14.29 7.835a1.75 1.75 0 0 0 1.681 3.074l2.967-1.627 3.323 7.427-17.483 7.782a10.3 10.3 0 0 1 -12.846-3.913l-12.8-20.36 1.476-2.348 11.282 17.939a7.76 7.76 0 0 0 6.567 3.617 7.682 7.682 0 0 0 3.714-.956l6.9-3.777a1.75 1.75 0 0 0 -1.682-3.069l-6.9 3.783a4.249 4.249 0 0 1 -5.635-1.458l-12.175-19.368 35.221-56.045a4.749 4.749 0 1 0 -8.042-5.054l-17.6 28.012a1.75 1.75 0 1 0 2.963 1.862l17.6-28.013a1.25 1.25 0 0 1 2.116 1.33l-35.757 56.9-.014.022-16.958 26.983a10.3 10.3 0 0 1 -12.846 3.911l-17.481-7.78 3.321-7.429 16.764 9.194a7.761 7.761 0 0 0 10.289-2.665l12.706-20.222.017-.026 11.193-17.812a1.75 1.75 0 1 0 -2.963-1.862l-6.137 9.765-32.791-52.18a4.752 4.752 0 0 0 -8.04 5.068l35.223 56.037-12.171 19.366a4.258 4.258 0 0 1 -5.643 1.466l-28.089-15.405a1.75 1.75 0 0 0 -2.439.82l-5.185 11.6a1.751 1.751 0 0 0 .887 2.313l9.855 4.385a.931.931 0 0 0 .348.155l18.914 8.415a13.6 13.6 0 0 0 5.538 1.174 13.821 13.821 0 0 0 11.693-6.425l11.9-18.932 11.9 18.933a13.836 13.836 0 0 0 11.7 6.422 13.583 13.583 0 0 0 5.536-1.176l18.9-8.41a1.02 1.02 0 0 0 .381-.17l9.843-4.381a1.748 1.748 0 0 0 .885-2.314zm-97-75.732a1.253 1.253 0 0 1 -.162-.952 1.228 1.228 0 0 1 .549-.774 1.269 1.269 0 0 1 1.728.384l33.685 53.6-1.476 2.348zm-13.664 67.3 6.581 3.609-3.44 7.695-6.838-3.033zm99.917 11.3-3.44-7.694 6.579-3.608 3.7 8.258z"/><path d="m74.174 46.243a1.751 1.751 0 0 0 2.413-.551l1.921-3.057a1.75 1.75 0 1 0 -2.963-1.862l-1.921 3.057a1.751 1.751 0 0 0 .55 2.413z"/><path d="m74.361 105.768a1.75 1.75 0 0 0 -1.508 3.159c1.392.664 1.9 1.321 1.9 1.6 0 .935-3.767 3.221-10.75 3.221s-10.75-2.286-10.75-3.221 3.767-3.221 10.75-3.221a28.577 28.577 0 0 1 3.5.21 1.75 1.75 0 0 0 .43-3.474 32.077 32.077 0 0 0 -3.933-.235c-6.885 0-13.833 2.189-14.214 6.366a1.758 1.758 0 0 0 -.036.356v6c0 .02.006.038.006.057a1.77 1.77 0 0 0 .03.3c.379 4.177 7.328 6.366 14.214 6.366s13.835-2.189 14.214-6.366a1.77 1.77 0 0 0 .03-.3c0-.02.006-.038.006-.057v-6c0-1.329-.675-3.229-3.889-4.761zm-10.361 13.982c-6.983 0-10.75-2.286-10.75-3.22v-1.44l.019.01c.039.019.077.039.118.055a24.807 24.807 0 0 0 10.613 2.094 24.805 24.805 0 0 0 10.614-2.1c.038-.015.074-.034.11-.052l.026-.013v1.44c0 .94-3.767 3.226-10.75 3.226z"/></g></svg>